<?xml version="1.0" encoding="UTF-8" standalone="no"?>
<!DOCTYPE svg PUBLIC "-//W3C//DTD SVG 20010904//EN"
              "http://www.w3.org/TR/2001/REC-SVG-20010904/DTD/svg10.dtd">

<svg xmlns="http://www.w3.org/2000/svg"
     width="2.11667in" height="1.82333in"
     viewBox="0 0 635 547">
  <path id="Logo"
        fill="black" stroke="black" stroke-width="1"
        d="M 180.00,0.08
           C 180.00,0.08 227.00,0.08 227.00,0.08
             227.00,0.08 316.00,0.08 316.00,0.08
             316.00,0.08 372.00,0.08 372.00,0.08
             372.00,0.08 453.00,0.08 453.00,0.08
             453.00,0.08 465.00,0.91 465.00,0.91
             481.71,2.08 497.72,4.56 514.00,8.63
             545.74,16.56 577.01,32.90 595.31,61.00
             600.78,69.40 605.19,78.47 608.33,88.00
             611.81,98.57 614.98,114.91 615.16,126.00
             615.16,126.00 615.16,137.00 615.16,137.00
             615.16,137.00 615.16,152.00 615.16,152.00
             614.70,177.29 602.11,209.89 583.00,226.71
             576.03,232.84 568.30,238.09 560.00,242.24
             560.00,242.24 551.04,246.27 551.04,246.27
             547.48,248.33 545.42,251.84 546.45,256.00
             547.94,262.09 557.67,265.14 563.00,267.43
             575.41,272.76 587.00,280.15 596.96,289.29
             621.21,311.52 631.76,346.13 634.09,378.00
             634.09,378.00 635.00,388.00 635.00,388.00
             635.23,407.72 634.23,428.89 628.99,448.00
             625.74,459.84 621.41,471.51 614.94,482.00
             597.73,509.86 574.13,523.30 544.00,533.33
             520.14,541.28 494.95,544.37 470.00,546.09
             470.00,546.09 458.00,547.00 458.00,547.00
             458.00,547.00 395.00,547.00 395.00,547.00
             395.00,547.00 278.00,547.00 278.00,547.00
             262.08,546.98 255.02,539.92 255.00,524.00
             255.00,524.00 255.00,194.00 255.00,194.00
             255.00,194.00 255.00,118.00 255.00,118.00
             254.90,109.97 253.48,101.80 246.96,96.39
             238.65,89.50 222.41,90.88 212.00,91.00
             212.00,91.00 197.00,92.00 197.00,92.00
             167.85,92.05 134.43,100.11 121.31,129.00
             114.38,144.25 113.81,161.56 114.00,178.00
             114.31,204.14 124.68,230.25 150.00,241.13
             158.66,244.85 167.75,246.74 177.00,248.25
             187.63,249.98 200.21,249.26 204.20,262.00
             205.10,264.89 205.00,320.00 205.00,320.00
             204.94,333.43 197.03,342.70 183.00,341.91
             138.68,339.41 81.16,330.33 47.00,299.83
             12.38,268.91 1.52,224.74 1.00,180.00
             1.00,180.00 0.34,171.00 0.34,171.00
             0.34,171.00 0.98,164.00 0.98,164.00
             0.98,164.00 0.98,152.00 0.98,152.00
             1.13,141.63 4.09,123.21 6.63,113.00
             11.83,92.08 20.66,70.26 35.17,54.00
             61.06,25.01 97.51,11.73 135.00,5.43
             135.00,5.43 168.00,1.17 168.00,1.17
             168.00,1.17 180.00,0.08 180.00,0.08 Z
           M 382.00,86.14
           C 374.41,87.45 368.54,88.76 364.36,96.00
             361.42,101.11 361.01,108.22 361.00,114.00
             361.00,114.00 361.00,168.00 361.00,168.00
             361.00,168.00 361.00,393.00 361.00,393.00
             361.00,393.00 361.00,435.00 361.00,435.00
             361.08,441.81 362.18,449.76 367.21,454.79
             372.80,460.38 381.54,460.99 389.00,461.00
             389.00,461.00 424.00,461.00 424.00,461.00
             424.00,461.00 441.00,460.00 441.00,460.00
             452.44,459.98 463.83,458.99 475.00,456.35
             493.32,452.01 508.36,443.79 516.68,426.00
             524.78,408.67 524.09,390.54 524.00,372.00
             523.91,354.05 517.19,331.90 503.83,319.44
             495.62,311.78 483.81,306.61 473.00,303.89
             464.66,301.80 453.57,300.01 445.00,300.00
             431.94,299.98 417.19,299.23 412.79,284.00
             411.90,280.93 412.00,278.15 412.00,275.00
             412.00,275.00 412.00,235.00 412.00,235.00
             412.21,217.85 424.72,212.07 440.00,212.00
             459.35,211.91 481.39,208.26 494.82,193.00
             506.66,179.53 507.19,160.92 507.00,144.00
             506.77,125.04 499.26,105.81 482.00,96.31
             472.22,90.93 456.17,87.13 445.00,87.00
             445.00,87.00 424.00,86.14 424.00,86.14
             424.00,86.14 382.00,86.14 382.00,86.14 Z" />
</svg>
