<?xml version="1.0" encoding="UTF-8" standalone="no"?>
<!DOCTYPE svg PUBLIC "-//W3C//DTD SVG 20010904//EN"
              "http://www.w3.org/TR/2001/REC-SVG-20010904/DTD/svg10.dtd">

<svg xmlns="http://www.w3.org/2000/svg"
     width="2.11667in" height="1.82333in"
     viewBox="0 0 635 547">
  <path id="LogoThin"
        fill="black" stroke="black" stroke-width="1"
        d="M 182.00,15.08
           C 182.00,15.08 223.00,15.08 223.00,15.08
             223.00,15.08 298.00,15.08 298.00,15.08
             298.00,15.08 357.00,15.08 357.00,15.08
             357.00,15.08 400.00,15.08 400.00,15.08
             443.60,15.00 465.35,13.75 509.00,23.58
             538.86,30.30 568.35,46.09 584.40,73.00
             588.54,79.95 592.11,88.23 594.41,96.00
             596.81,104.12 599.90,120.64 600.00,129.00
             600.00,129.00 600.00,149.00 600.00,149.00
             599.74,170.71 588.60,201.40 572.00,215.70
             567.36,219.70 561.39,223.77 556.00,226.69
             556.00,226.69 544.00,232.53 544.00,232.53
             534.19,238.22 529.32,247.79 531.33,259.00
             533.69,272.22 547.31,277.40 558.00,282.31
             570.02,287.83 581.90,295.12 590.83,305.00
             610.37,326.61 617.03,356.78 619.09,385.00
             619.09,385.00 619.99,398.00 619.99,398.00
             619.99,398.00 619.09,407.00 619.09,407.00
             618.27,418.90 617.35,430.36 614.37,442.00
             610.50,457.09 603.90,473.08 593.70,485.00
             574.72,507.18 547.73,517.34 520.00,523.65
             469.43,535.16 404.55,532.00 352.00,532.00
             352.00,532.00 294.00,532.00 294.00,532.00
             289.43,532.00 275.82,532.70 272.58,530.02
             269.84,527.74 270.01,520.34 270.00,517.00
             270.00,517.00 270.00,178.00 270.00,178.00
             270.00,178.00 270.00,115.00 270.00,115.00
             269.96,91.17 253.48,76.04 230.00,76.00
             230.00,76.00 206.00,76.00 206.00,76.00
             206.00,76.00 186.00,77.00 186.00,77.00
             158.50,77.33 128.37,89.76 112.67,113.00
             107.28,120.99 106.22,123.98 103.34,133.00
             100.65,141.44 99.01,152.15 99.00,161.00
             99.00,161.00 99.00,184.00 99.00,184.00
             99.04,207.53 110.49,231.90 129.00,246.48
             140.98,255.92 153.34,259.47 168.00,262.40
             171.65,263.13 186.31,264.63 188.01,266.74
             189.20,268.22 188.96,271.18 189.01,273.00
             189.01,273.00 190.00,286.00 190.00,286.00
             190.00,286.00 190.00,314.00 190.00,314.00
             189.96,316.93 189.78,323.06 187.28,325.01
             185.48,326.41 179.38,326.02 177.00,326.00
             166.79,325.88 144.43,322.48 134.00,320.40
             108.30,315.26 77.93,306.62 58.00,288.83
             27.94,262.00 19.54,227.49 16.91,189.00
             16.91,189.00 16.00,177.00 16.00,177.00
             15.97,154.81 16.17,139.94 21.63,118.00
             26.10,100.01 32.54,81.55 44.46,67.00
             67.20,39.26 105.45,25.55 140.00,20.43
             140.00,20.43 172.00,16.28 172.00,16.28
             172.00,16.28 182.00,15.08 182.00,15.08 Z
           M 376.00,71.10
           C 372.03,72.05 367.61,73.15 364.00,74.99
             344.60,84.92 346.00,103.65 346.00,122.00
             346.00,122.00 346.00,158.00 346.00,158.00
             346.00,158.00 346.00,403.00 346.00,403.00
             346.00,403.00 346.00,428.00 346.00,428.00
             346.00,428.00 346.00,440.00 346.00,440.00
             346.08,455.98 354.20,469.40 370.00,474.28
             375.37,475.93 377.51,475.99 383.00,476.00
             383.00,476.00 410.00,476.00 410.00,476.00
             410.00,476.00 432.00,476.00 432.00,476.00
             432.00,476.00 444.00,475.04 444.00,475.04
             444.00,475.04 455.00,475.04 455.00,475.04
             482.41,474.68 512.08,463.68 527.30,440.00
             530.91,434.39 533.31,428.39 535.14,422.00
             537.49,413.80 538.99,405.55 539.00,397.00
             539.00,397.00 539.00,366.00 539.00,366.00
             538.97,344.26 528.26,318.11 511.00,304.52
             495.89,292.61 471.19,285.09 452.00,285.00
             447.72,284.98 436.69,284.57 433.02,283.11
             427.08,280.75 427.03,275.45 427.00,270.00
             427.00,270.00 427.00,242.00 427.00,242.00
             427.18,227.17 435.48,227.02 448.00,227.00
             470.75,226.96 495.81,219.15 509.57,200.00
             517.44,189.05 521.84,175.53 522.00,162.00
             522.00,162.00 522.00,139.00 522.00,139.00
             521.96,115.22 509.54,92.30 488.00,81.37
             479.90,77.26 465.08,73.05 456.00,72.04
             456.00,72.04 446.00,72.04 446.00,72.04
             446.00,72.04 436.00,71.10 436.00,71.10
             436.00,71.10 416.00,71.10 416.00,71.10
             416.00,71.10 376.00,71.10 376.00,71.10 Z" />
</svg>
